Coordinates
version=1
nRows=31
nColumns=33
inDegrees=yes

Units are S.I. units (second, meters, Newtons, ...)
Angles are in degrees.

endheader
time	ground_thorax_rot_x	ground_thorax_rot_y	ground_thorax_rot_z	ground_thorax_tx	ground_thorax_ty	ground_thorax_tz	clav_prot_r	clav_elev_r	scapula_abduction_r	scapula_elevation_r	scapula_upward_rot_r	scapula_winging_r	shoulder_elv_r	plane_of_elev_r	axial_rot_r	elbow_flexion_r	pro_sup_r	wrist_flex_r	wrist_dev_r	clav_prot_l	clav_elev_l	scapula_abduction_l	scapula_elevation_l	scapula_upward_rot_l	scapula_winging_l	shoulder_elv_l	plane_of_elev_l	axial_rot_l	elbow_flexion_l	pro_sup_l	wrist_flex_l	wrist_dev_l	
11.7000	35.818957	22.178194	23.385090	-187.709336	813.547776	6.509956	13.484482	36.215449	36.464831	45.000000	-45.000000	-2243.511170	-2265.377182	143.201982	180.000000	1092.371133	-310.759225	23.250017	10.801658	6.999673	-45.000000	-37.457603	45.000000	-41.152213	2257.608730	-4772.871935	137.711106	155.692984	370.444436	2.075109	8.328255	-19.872868	
11.7100	35.870265	22.024521	23.162604	-189.346092	814.145341	6.568264	13.459801	36.197026	36.432693	45.000000	-45.000000	-2243.559743	-2265.307979	143.201464	180.000000	1092.393266	-310.967620	23.239183	10.775162	7.018248	-45.000000	-37.432839	45.000000	-41.198806	2257.679048	-4772.806475	137.705713	155.689579	370.450776	1.643497	8.336694	-19.837140	
11.7200	35.910136	21.883616	22.960110	-190.971784	814.738983	6.626867	13.440889	36.172952	36.392205	45.000000	-45.000000	-2243.607710	-2265.248192	143.210320	180.000000	1092.418493	-311.186354	23.230135	10.751226	7.045386	-45.000000	-37.406640	45.000000	-41.285064	2257.748491	-4772.729068	137.701073	155.684947	370.464444	1.203590	8.338611	-19.804254	
11.7300	35.939522	21.755887	22.776212	-192.588458	815.329082	6.684415	13.426760	36.144687	36.347475	45.000000	-45.000000	-2243.657142	-2265.203052	143.232915	180.000000	1092.446864	-311.416220	23.220698	10.726231	7.074345	-45.000000	-37.384509	45.000000	-41.394934	2257.815849	-4772.644573	137.705444	155.677668	370.485915	0.758663	8.337543	-19.774833	
11.7400	35.968922	21.619929	22.583681	-194.197130	815.915702	6.739479	13.406270	36.120552	36.305680	45.000000	-45.000000	-2243.706016	-2265.163994	143.254972	180.000000	1092.472346	-311.653361	23.213355	10.700880	7.098335	-45.000000	-37.367893	45.000000	-41.484680	2257.884154	-4772.565996	137.716346	155.659150	370.506223	0.319483	8.331735	-19.748576	
11.7500	36.001015	21.473648	22.379936	-195.798152	816.498527	6.790812	13.380234	36.101693	36.269588	45.000000	-45.000000	-2243.755318	-2265.128546	143.276721	180.000000	1092.493842	-311.891973	23.207528	10.673220	7.111266	-45.000000	-37.357932	45.000000	-41.531809	2257.955324	-4772.498766	137.737936	155.613713	370.523734	-0.097341	8.320478	-19.726299	
11.7600	36.036880	21.313801	22.163457	-197.391307	817.076876	6.837416	13.347345	36.087960	36.236869	45.000000	-45.000000	-2243.802335	-2265.090628	143.292453	180.000000	1092.509637	-312.128534	23.205797	10.646409	7.118949	-45.000000	-37.350241	45.000000	-41.540857	2258.031803	-4772.442945	137.764450	155.538851	370.534469	-0.485177	8.299593	-19.707351	
11.7700	36.077442	21.142133	21.936994	-198.976293	817.649803	6.878635	13.307220	36.079661	36.211251	45.000000	-45.000000	-2243.848778	-2265.051868	143.306987	180.000000	1092.519281	-312.357854	23.206456	10.616880	7.117155	-45.000000	-37.346318	45.000000	-41.502957	2258.111885	-4772.404327	137.800689	155.437713	370.536055	-0.835237	8.271454	-19.691526	
11.7800	36.121027	20.960209	21.703610	-200.552888	818.216261	6.914093	13.262000	36.073961	36.187646	45.000000	-45.000000	-2243.892126	-2265.007045	143.315580	180.000000	1092.523249	-312.577603	23.211677	10.588698	7.115421	-45.000000	-37.342095	45.000000	-41.440623	2258.197344	-4772.375456	137.838084	155.311505	370.527082	-1.148319	8.232338	-19.677948	
11.7900	36.163143	20.779040	21.476377	-202.121226	818.775358	6.943667	13.219413	36.066087	36.159470	45.000000	-45.000000	-2243.933080	-2264.959508	143.322642	180.000000	1092.525805	-312.786175	23.219923	10.561152	7.116526	-45.000000	-37.335093	45.000000	-41.384401	2258.285755	-4772.346207	137.874921	155.168400	370.515620	-1.428874	8.186103	-19.667007	
11.8000	36.199207	20.606563	21.264165	-203.681661	819.326531	6.967390	13.183120	36.052131	36.120717	45.000000	-45.000000	-2243.970572	-2264.911531	143.329918	180.000000	1092.529238	-312.983967	23.231028	10.535698	7.128409	-45.000000	-37.323578	45.000000	-41.368175	2258.375089	-4772.306482	137.907062	155.020609	370.505286	-1.689007	8.132817	-19.657972	
11.8100	36.235602	20.432308	21.051718	-205.234446	819.869626	6.985359	13.145834	36.038069	36.079593	45.000000	-45.000000	-2244.006074	-2264.863153	143.335733	180.000000	1092.530528	-313.164831	23.242622	10.507153	7.140135	-45.000000	-37.311952	45.000000	-41.360943	2258.462029	-4772.268211	137.939220	154.874265	370.492857	-1.928146	8.077387	-19.650414	
11.8200	36.271520	20.257453	20.839606	-206.779489	820.404870	6.997651	13.107969	36.023708	36.036211	45.000000	-45.000000	-2244.039855	-2264.815115	143.341488	180.000000	1092.532371	-313.323526	23.254796	10.474295	7.152015	-45.000000	-37.301119	45.000000	-41.356808	2258.548415	-4772.230661	137.973255	154.718442	370.479574	-2.144566	8.015441	-19.644798	
11.8300	36.309294	20.078288	20.623848	-208.315768	820.932652	7.004201	13.068479	36.009915	35.991169	45.000000	-45.000000	-2244.070463	-2264.763623	143.344682	180.000000	1092.531697	-313.453631	23.266991	10.436806	7.163370	-45.000000	-37.290055	45.000000	-41.351386	2258.633599	-4772.196821	138.007435	154.550957	370.463171	-2.335903	7.947068	-19.640373	
11.8400	36.350158	19.893726	20.403523	-209.841239	821.453293	7.004760	13.025663	35.997481	35.946222	45.000000	-45.000000	-2244.098337	-2264.706348	143.345466	180.000000	1092.526625	-313.550638	23.278642	10.393476	7.173539	-45.000000	-37.277219	45.000000	-41.340259	2258.716927	-4772.169540	138.041236	154.372566	370.440590	-2.499873	7.871191	-19.636402	
11.8500	36.397450	19.698747	20.174876	-211.352963	821.966848	6.998877	12.980784	35.986208	35.899791	45.000000	-45.000000	-2244.121612	-2264.635961	143.337354	180.000000	1092.513493	-313.610587	23.289971	10.346102	7.184663	-45.000000	-37.260323	45.000000	-41.322593	2258.799486	-4772.149344	138.069808	154.182037	370.408720	-2.633032	7.789486	-19.631839	
11.8600	36.443692	19.509025	19.954639	-212.847537	822.472968	6.986027	12.938670	35.973197	35.849442	45.000000	-45.000000	-2244.144625	-2264.562069	143.330305	180.000000	1092.501374	-313.635223	23.301081	10.292812	7.198898	-45.000000	-37.238995	45.000000	-41.318502	2258.881201	-4772.125672	138.095338	153.983071	370.377047	-2.735972	7.700990	-19.628286	
11.8700	36.482978	19.336831	19.756613	-214.321539	822.970913	6.965739	12.906140	35.954213	35.788328	45.000000	-45.000000	-2244.166254	-2264.490206	143.328874	180.000000	1092.493041	-313.624730	23.313979	10.237779	7.226092	-45.000000	-37.211597	45.000000	-41.378433	2258.960387	-4772.084012	138.110946	153.793431	370.355048	-2.812769	7.605993	-19.626849	
11.8800	36.516578	19.177232	19.573646	-215.771933	823.459656	6.937806	12.872456	35.936238	35.728097	45.000000	-45.000000	-2244.191619	-2264.432177	143.338496	180.000000	1092.492766	-313.583542	23.326662	10.172326	7.251928	-45.000000	-37.184911	45.000000	-41.463658	2259.033181	-4772.037859	138.129444	153.630737	370.341267	-2.862915	7.512241	-19.628059	
11.8900	36.548626	19.020243	19.395319	-217.196466	823.938138	6.902418	12.838521	35.918854	35.667483	45.000000	-45.000000	-2244.215665	-2264.381561	143.350936	180.000000	1092.496057	-313.514557	23.340661	10.100988	7.278260	-45.000000	-37.161082	45.000000	-41.556727	2259.102990	-4771.990519	138.148520	153.478837	370.331698	-2.882798	7.419327	-19.631768	
11.9000	36.582755	18.860860	19.212634	-218.593545	824.405382	6.860277	12.797493	35.906689	35.613296	45.000000	-45.000000	-2244.241509	-2264.339798	143.366248	180.000000	1092.502519	-313.424115	23.353642	10.018773	7.292900	-45.000000	-37.142537	45.000000	-41.608715	2259.170003	-4771.954715	138.176988	153.325357	370.322087	-2.868061	7.328683	-19.637988	
11.9100	36.620079	18.695263	19.024590	-219.962029	824.860565	6.812573	12.756013	35.895101	35.557924	45.000000	-45.000000	-2244.262068	-2264.295231	143.374516	180.000000	1092.506975	-313.314073	23.368754	9.935210	7.306939	-45.000000	-37.126714	45.000000	-41.642034	2259.239429	-4771.921807	138.205085	153.157915	370.311889	-2.817553	7.233915	-19.646439	
11.9200	36.663243	18.523393	18.828509	-221.300932	825.302903	6.760936	12.707647	35.888606	35.506079	45.000000	-45.000000	-2244.281298	-2264.249902	143.376640	180.000000	1092.507630	-313.188286	23.383209	9.845322	7.310347	-45.000000	-37.109740	45.000000	-41.643797	2259.306381	-4771.898497	138.234328	152.988315	370.299093	-2.729945	7.136706	-19.656569	
11.9300	36.710732	18.344899	18.629459	-222.609196	825.731396	6.707294	12.660261	35.881270	35.450689	45.000000	-45.000000	-2244.293814	-2264.196458	143.367047	180.000000	1092.504715	-313.046067	23.400688	9.757024	7.315608	-45.000000	-37.089353	45.000000	-41.646813	2259.374108	-4771.874705	138.254402	152.821477	370.284693	-2.604585	7.031817	-19.667735	
11.9400	36.755766	18.183960	18.449356	-223.885685	826.144582	6.653752	12.616876	35.871987	35.390084	45.000000	-45.000000	-2244.307052	-2264.146395	143.362148	180.000000	1092.502937	-312.887517	23.418343	9.665841	7.323290	-45.000000	-37.059337	45.000000	-41.691201	2259.435814	-4771.840696	138.262934	152.678804	370.277374	-2.442398	6.919092	-19.680738	
11.9500	36.794934	18.038161	18.289527	-225.128974	826.540281	6.602446	12.580370	35.857046	35.322416	45.000000	-45.000000	-2244.317672	-2264.100600	143.361505	180.000000	1092.507413	-312.709245	23.439708	9.575403	7.341430	-45.000000	-37.026500	45.000000	-41.796564	2259.493036	-4771.790162	138.259073	152.580827	370.279844	-2.244804	6.798046	-19.695095	
11.9600	36.828174	17.913464	18.153506	-226.337586	826.915628	6.555429	12.546048	35.842103	35.252029	45.000000	-45.000000	-2244.330544	-2264.069828	143.373023	180.000000	1092.518572	-312.510163	23.458780	9.476327	7.359877	-45.000000	-36.988243	45.000000	-41.949399	2259.539773	-4771.730586	138.248693	152.528941	370.292082	-2.008128	6.676536	-19.710783	
11.9700	36.859593	17.790299	18.023671	-227.509779	827.267159	6.514599	12.511222	35.825553	35.181702	45.000000	-45.000000	-2244.340078	-2264.044172	143.386344	180.000000	1092.536248	-312.286976	23.480148	9.373603	7.377844	-45.000000	-36.953910	45.000000	-42.101218	2259.582688	-4771.674609	138.236730	152.512336	370.304246	-1.729667	6.550639	-19.725741	
11.9800	36.887487	17.682988	17.913316	-228.643789	827.591193	6.481646	12.478960	35.810020	35.109619	45.000000	-45.000000	-2244.349209	-2264.027991	143.408327	180.000000	1092.556180	-312.037986	23.495346	9.260916	7.394782	-45.000000	-36.915840	45.000000	-42.255318	2259.621119	-4771.622544	138.225904	152.506076	370.318681	-1.406052	6.427068	-19.740356	
11.9900	36.914550	17.575446	17.806574	-229.737395	827.884079	6.458042	12.446175	35.792244	35.037468	45.000000	-45.000000	-2244.351444	-2264.010527	143.429381	180.000000	1092.576723	-311.758880	23.512992	9.148313	7.410620	-45.000000	-36.881848	45.000000	-42.387411	2259.660389	-4771.582736	138.217423	152.512388	370.328516	-1.041571	6.296851	-19.753112	
12.0000	36.935896	17.485089	17.722646	-230.788206	828.142602	6.445018	12.415585	35.776637	34.962770	45.000000	-45.000000	-2244.352063	-2264.001713	143.456951	180.000000	1092.597130	-311.450065	23.522320	9.025487	7.426100	-45.000000	-36.840449	45.000000	-42.531268	2259.694894	-4771.546648	138.209500	152.524497	370.341600	-0.640011	6.171517	-19.764912	
